<svg xmlns="http://www.w3.org/2000/svg" xmlns:xlink="http://www.w3.org/1999/xlink" width="500" zoomAndPan="magnify" viewBox="0 0 375 374.999991" height="500" preserveAspectRatio="xMidYMid meet" version="1.0"><defs><clipPath id="2d7fdfcb80"><path d="M 288 116 L 375 116 L 375 375 L 288 375 Z M 288 116 " clip-rule="nonzero"/></clipPath><clipPath id="c3d1adec22"><path d="M 187.566406 0 C 291.078125 0 375 83.921875 375 187.566406 C 375 291.078125 291.078125 375 187.566406 375 C 83.921875 375 0 291.078125 0 187.566406 C 0 83.921875 83.921875 0 187.566406 0 Z M 187.566406 0 " clip-rule="evenodd"/></clipPath><clipPath id="c584534e0f"><path d="M 292 125 L 375 125 L 375 375 L 292 375 Z M 292 125 " clip-rule="nonzero"/></clipPath><clipPath id="e83bafc589"><path d="M 187.566406 0 C 291.078125 0 375 83.921875 375 187.566406 C 375 291.078125 291.078125 375 187.566406 375 C 83.921875 375 0 291.078125 0 187.566406 C 0 83.921875 83.921875 0 187.566406 0 Z M 187.566406 0 " clip-rule="evenodd"/></clipPath><clipPath id="48e8560a5e"><path d="M 115 77 L 375 77 L 375 375 L 115 375 Z M 115 77 " clip-rule="nonzero"/></clipPath><clipPath id="4bd04e4458"><path d="M 187.566406 0 C 291.078125 0 375 83.921875 375 187.566406 C 375 291.078125 291.078125 375 187.566406 375 C 83.921875 375 0 291.078125 0 187.566406 C 0 83.921875 83.921875 0 187.566406 0 Z M 187.566406 0 " clip-rule="evenodd"/></clipPath><clipPath id="c9715607cb"><path d="M 279 287 L 375 287 L 375 375 L 279 375 Z M 279 287 " clip-rule="nonzero"/></clipPath><clipPath id="c319c27541"><path d="M 187.566406 0 C 291.078125 0 375 83.921875 375 187.566406 C 375 291.078125 291.078125 375 187.566406 375 C 83.921875 375 0 291.078125 0 187.566406 C 0 83.921875 83.921875 0 187.566406 0 Z M 187.566406 0 " clip-rule="evenodd"/></clipPath><clipPath id="7b00f09438"><path d="M 275 300 L 375 300 L 375 375 L 275 375 Z M 275 300 " clip-rule="nonzero"/></clipPath><clipPath id="0d4e2d1eb3"><path d="M 187.566406 0 C 291.078125 0 375 83.921875 375 187.566406 C 375 291.078125 291.078125 375 187.566406 375 C 83.921875 375 0 291.078125 0 187.566406 C 0 83.921875 83.921875 0 187.566406 0 Z M 187.566406 0 " clip-rule="evenodd"/></clipPath><clipPath id="32ff69d135"><path d="M 95 300 L 375 300 L 375 375 L 95 375 Z M 95 300 " clip-rule="nonzero"/></clipPath><clipPath id="e139149aea"><path d="M 187.566406 0 C 291.078125 0 375 83.921875 375 187.566406 C 375 291.078125 291.078125 375 187.566406 375 C 83.921875 375 0 291.078125 0 187.566406 C 0 83.921875 83.921875 0 187.566406 0 Z M 187.566406 0 " clip-rule="evenodd"/></clipPath><clipPath id="4cab35d809"><path d="M 86 296 L 375 296 L 375 375 L 86 375 Z M 86 296 " clip-rule="nonzero"/></clipPath><clipPath id="4af7db2f0f"><path d="M 187.566406 0 C 291.078125 0 375 83.921875 375 187.566406 C 375 291.078125 291.078125 375 187.566406 375 C 83.921875 375 0 291.078125 0 187.566406 C 0 83.921875 83.921875 0 187.566406 0 Z M 187.566406 0 " clip-rule="evenodd"/></clipPath><clipPath id="43a6ccb828"><path d="M 267 79 L 375 79 L 375 375 L 267 375 Z M 267 79 " clip-rule="nonzero"/></clipPath><clipPath id="56eb612109"><path d="M 187.566406 0 C 291.078125 0 375 83.921875 375 187.566406 C 375 291.078125 291.078125 375 187.566406 375 C 83.921875 375 0 291.078125 0 187.566406 C 0 83.921875 83.921875 0 187.566406 0 Z M 187.566406 0 " clip-rule="evenodd"/></clipPath><clipPath id="146b765bc0"><path d="M 292 147 L 375 147 L 375 375 L 292 375 Z M 292 147 " clip-rule="nonzero"/></clipPath><clipPath id="fe0328756f"><path d="M 187.566406 0 C 291.078125 0 375 83.921875 375 187.566406 C 375 291.078125 291.078125 375 187.566406 375 C 83.921875 375 0 291.078125 0 187.566406 C 0 83.921875 83.921875 0 187.566406 0 Z M 187.566406 0 " clip-rule="evenodd"/></clipPath><clipPath id="715fb4809f"><path d="M 82 74 L 293 74 L 293 301 L 82 301 Z M 82 74 " clip-rule="nonzero"/></clipPath><clipPath id="cd5d276c63"><path d="M 187.566406 0 C 291.078125 0 375 83.921875 375 187.566406 C 375 291.078125 291.078125 375 187.566406 375 C 83.921875 375 0 291.078125 0 187.566406 C 0 83.921875 83.921875 0 187.566406 0 Z M 187.566406 0 " clip-rule="evenodd"/></clipPath></defs><path fill="#91bed4" d="M 187.566406 0 C 291.078125 0 375 83.921875 375 187.566406 C 375 291.078125 291.078125 375 187.566406 375 C 83.921875 375 0 291.078125 0 187.566406 C 0 83.921875 83.921875 0 187.566406 0 Z M 187.566406 0 " fill-opacity="1" fill-rule="evenodd"/><g clip-path="url(#2d7fdfcb80)"><g clip-path="url(#c3d1adec22)"><path fill="#7ca0b2" d="M 288.5625 116.21875 L 789.710938 617.5 L 790.636719 618.425781 L 791.300781 619.351562 L 791.960938 620.542969 L 792.621094 621.601562 L 793.019531 622.792969 L 793.550781 625.441406 L 793.550781 626.765625 L 292.402344 125.617188 L 292.402344 124.292969 L 292.136719 122.96875 L 291.871094 121.648438 L 291.34375 120.457031 L 290.8125 119.265625 L 290.152344 118.207031 L 289.359375 117.144531 Z M 288.5625 116.21875 " fill-opacity="1" fill-rule="evenodd"/></g></g><g clip-path="url(#c584534e0f)"><g clip-path="url(#e83bafc589)"><path fill="#7ca0b2" d="M 292.402344 125.617188 L 793.550781 626.765625 L 793.550781 648.339844 L 292.402344 147.0625 Z M 292.402344 125.617188 " fill-opacity="1" fill-rule="evenodd"/></g></g><g clip-path="url(#48e8560a5e)"><g clip-path="url(#4bd04e4458)"><path fill="#7ca0b2" d="M 129.851562 77.566406 L 631.792969 579.507812 L 632.324219 580.304688 L 632.855469 581.230469 L 633.382812 582.15625 L 633.648438 583.082031 L 633.914062 584.011719 L 634.046875 585.070312 L 634.175781 586.128906 L 634.046875 587.1875 L 633.914062 588.246094 L 633.648438 589.171875 L 633.382812 590.230469 L 632.855469 591.15625 L 632.324219 591.953125 L 631.792969 592.746094 L 631.132812 593.539062 L 630.339844 594.203125 L 629.542969 594.730469 L 628.75 595.261719 L 627.824219 595.660156 L 626.898438 596.054688 L 625.839844 596.320312 L 624.78125 596.453125 L 623.71875 596.585938 L 621.601562 596.320312 L 620.675781 596.054688 L 619.75 595.660156 L 618.824219 595.261719 L 617.894531 594.730469 L 617.101562 594.203125 L 616.441406 593.539062 L 115.160156 92.261719 L 115.953125 92.921875 L 116.75 93.585938 L 117.542969 94.113281 L 118.46875 94.511719 L 119.527344 94.910156 L 120.457031 95.171875 L 121.515625 95.304688 L 123.632812 95.304688 L 124.691406 95.171875 L 125.617188 94.910156 L 126.542969 94.511719 L 127.472656 94.113281 L 128.398438 93.585938 L 129.191406 92.921875 L 130.515625 91.597656 L 131.175781 90.804688 L 131.707031 89.878906 L 132.105469 88.953125 L 132.5 88.023438 L 132.765625 87.097656 L 132.898438 86.039062 L 132.898438 83.921875 L 132.765625 82.863281 L 132.5 81.804688 L 132.105469 80.878906 L 131.707031 79.949219 L 131.175781 79.15625 L 130.515625 78.363281 Z M 129.851562 77.566406 " fill-opacity="1" fill-rule="evenodd"/></g></g><g clip-path="url(#c9715607cb)"><g clip-path="url(#c319c27541)"><path fill="#7ca0b2" d="M 292.402344 287.238281 L 793.679688 788.519531 L 793.550781 789.84375 L 793.417969 791.167969 L 792.621094 793.550781 L 792.09375 794.742188 L 791.429688 795.800781 L 790.636719 796.859375 L 789.710938 797.785156 L 788.785156 798.578125 L 787.855469 799.375 L 786.667969 800.035156 L 785.605469 800.566406 L 784.414062 801.09375 L 783.09375 801.359375 L 781.769531 801.625 L 780.445312 801.625 L 279.296875 300.476562 L 281.945312 300.210938 L 283.136719 299.945312 L 284.328125 299.417969 L 285.519531 298.886719 L 286.578125 298.226562 L 287.636719 297.433594 L 288.5625 296.636719 L 289.488281 295.710938 L 290.152344 294.652344 L 290.8125 293.59375 L 291.34375 292.402344 L 291.871094 291.210938 L 292.402344 288.5625 Z M 292.402344 287.238281 " fill-opacity="1" fill-rule="evenodd"/></g></g><g clip-path="url(#7b00f09438)"><g clip-path="url(#0d4e2d1eb3)"><path fill="#7ca0b2" d="M 279.296875 300.476562 L 780.445312 801.625 L 777.136719 801.625 L 275.988281 300.476562 Z M 279.296875 300.476562 " fill-opacity="1" fill-rule="evenodd"/></g></g><g clip-path="url(#32ff69d135)"><g clip-path="url(#e139149aea)"><path fill="#7ca0b2" d="M 275.988281 300.476562 L 777.136719 801.625 L 596.980469 801.625 L 95.835938 300.476562 Z M 275.988281 300.476562 " fill-opacity="1" fill-rule="evenodd"/></g></g><g clip-path="url(#4cab35d809)"><g clip-path="url(#4af7db2f0f)"><path fill="#7ca0b2" d="M 95.835938 300.476562 L 596.980469 801.625 L 595.660156 801.625 L 593.011719 801.09375 L 591.820312 800.566406 L 590.628906 800.035156 L 589.570312 799.375 L 588.644531 798.578125 L 587.714844 797.785156 L 86.4375 296.636719 L 87.363281 297.433594 L 88.421875 298.226562 L 89.480469 298.886719 L 90.671875 299.417969 L 91.863281 299.945312 L 93.1875 300.210938 L 94.378906 300.34375 Z M 95.835938 300.476562 " fill-opacity="1" fill-rule="evenodd"/></g></g><g clip-path="url(#43a6ccb828)"><g clip-path="url(#56eb612109)"><path fill="#7ca0b2" d="M 278.769531 79.421875 L 779.914062 580.566406 L 780.445312 581.230469 L 780.84375 581.757812 L 781.238281 582.421875 L 781.636719 583.082031 L 781.902344 583.878906 L 782.03125 584.539062 L 782.164062 585.332031 L 782.164062 586.921875 L 782.03125 587.714844 L 781.902344 588.511719 L 781.636719 589.171875 L 781.238281 589.835938 L 780.84375 590.496094 L 780.445312 591.15625 L 779.386719 592.214844 L 778.722656 592.613281 L 778.195312 593.011719 L 777.398438 593.277344 L 776.738281 593.539062 L 775.945312 593.804688 L 775.148438 593.9375 L 773.5625 593.9375 L 772.898438 593.804688 L 772.105469 593.539062 L 771.445312 593.277344 L 770.648438 593.011719 L 770.121094 592.613281 L 769.457031 592.214844 L 768.929688 591.6875 L 267.78125 90.40625 L 268.839844 91.464844 L 269.503906 91.863281 L 270.164062 92.128906 L 270.957031 92.394531 L 271.621094 92.65625 L 272.414062 92.65625 L 273.207031 92.789062 L 274.003906 92.65625 L 274.796875 92.65625 L 275.589844 92.394531 L 276.253906 92.128906 L 276.914062 91.863281 L 277.578125 91.464844 L 278.238281 90.9375 L 279.296875 89.878906 L 279.695312 89.347656 L 280.089844 88.6875 L 280.355469 88.023438 L 280.621094 87.230469 L 280.886719 86.570312 L 281.019531 85.773438 L 281.019531 84.1875 L 280.886719 83.390625 L 280.621094 82.597656 L 280.355469 81.9375 L 280.089844 81.273438 L 279.695312 80.613281 L 279.296875 79.949219 Z M 278.769531 79.421875 " fill-opacity="1" fill-rule="evenodd"/></g></g><g clip-path="url(#146b765bc0)"><g clip-path="url(#fe0328756f)"><path fill="#7ca0b2" d="M 292.402344 147.0625 L 793.679688 648.339844 L 793.679688 788.519531 L 292.402344 287.238281 Z M 292.402344 147.0625 " fill-opacity="1" fill-rule="evenodd"/></g></g><g clip-path="url(#715fb4809f)"><g clip-path="url(#cd5d276c63)"><path fill="#7ca0b2" d="M 95.835938 112.382812 L 279.164062 112.382812 C 286.445312 112.382812 292.402344 118.335938 292.402344 125.617188 L 292.402344 287.238281 C 292.402344 294.519531 286.578125 300.476562 279.296875 300.476562 L 95.835938 300.476562 C 88.554688 300.476562 82.597656 294.519531 82.597656 287.238281 L 82.597656 125.617188 C 82.597656 118.335938 88.554688 112.382812 95.835938 112.382812 Z M 273.207031 77.171875 C 277.578125 77.171875 281.019531 80.613281 281.019531 84.980469 C 281.019531 89.214844 277.578125 92.789062 273.207031 92.789062 C 268.972656 92.789062 265.398438 89.214844 265.398438 84.980469 C 265.398438 80.613281 268.972656 77.171875 273.207031 77.171875 Z M 122.574219 74.523438 C 128.265625 74.523438 132.898438 79.15625 132.898438 84.980469 C 132.898438 90.671875 128.265625 95.304688 122.574219 95.304688 C 116.882812 95.304688 112.117188 90.671875 112.117188 84.980469 C 112.117188 79.15625 116.882812 74.523438 122.574219 74.523438 Z M 122.574219 74.523438 " fill-opacity="1" fill-rule="evenodd"/></g></g><path fill="#3a3a3c" d="M 279.164062 112.382812 C 218.144531 112.382812 156.988281 112.382812 95.835938 112.382812 C 88.554688 112.382812 82.597656 118.335938 82.597656 125.617188 L 82.597656 148.515625 L 292.402344 148.515625 L 292.402344 125.617188 C 292.402344 118.335938 286.445312 112.382812 279.164062 112.382812 Z M 279.164062 112.382812 " fill-opacity="1" fill-rule="evenodd"/><path fill="#479b3b" d="M 270.957031 137.132812 C 267.515625 137.132812 264.605469 134.355469 264.605469 130.914062 C 264.605469 127.472656 267.515625 124.691406 270.957031 124.691406 C 274.398438 124.691406 277.179688 127.472656 277.179688 130.914062 C 277.179688 134.355469 274.398438 137.132812 270.957031 137.132812 Z M 270.957031 137.132812 " fill-opacity="1" fill-rule="evenodd"/><path fill="#fcc433" d="M 243.957031 137.132812 C 240.511719 137.132812 237.734375 134.355469 237.734375 130.914062 C 237.734375 127.472656 240.511719 124.691406 243.957031 124.691406 C 247.398438 124.691406 250.175781 127.472656 250.175781 130.914062 C 250.175781 134.355469 247.398438 137.132812 243.957031 137.132812 Z M 243.957031 137.132812 " fill-opacity="1" fill-rule="evenodd"/><path fill="#df2d47" d="M 217.085938 137.132812 C 213.644531 137.132812 210.863281 134.355469 210.863281 130.914062 C 210.863281 127.472656 213.644531 124.691406 217.085938 124.691406 C 220.527344 124.691406 223.304688 127.472656 223.304688 130.914062 C 223.304688 134.355469 220.527344 137.132812 217.085938 137.132812 Z M 217.085938 137.132812 " fill-opacity="1" fill-rule="evenodd"/><path fill="#363537" d="M 275.855469 112.382812 C 283.136719 112.382812 289.09375 118.335938 289.09375 125.617188 L 289.09375 147.0625 L 292.402344 147.0625 L 292.402344 125.617188 C 292.402344 118.335938 286.445312 112.382812 279.164062 112.382812 Z M 275.855469 112.382812 " fill-opacity="1" fill-rule="evenodd"/><path fill="#408436" d="M 270.957031 137.132812 C 274.398438 137.132812 277.179688 134.355469 277.179688 130.914062 C 277.179688 127.472656 274.398438 124.691406 270.957031 124.691406 C 270.296875 124.691406 269.765625 124.824219 269.238281 124.957031 C 271.886719 125.617188 273.871094 128.132812 273.871094 130.914062 C 273.871094 133.824219 271.886719 136.207031 269.238281 137 C 269.765625 137.132812 270.296875 137.132812 270.957031 137.132812 Z M 270.957031 137.132812 " fill-opacity="1" fill-rule="evenodd"/><path fill="#faa430" d="M 250.175781 130.914062 C 250.175781 127.472656 247.398438 124.691406 243.957031 124.691406 C 243.425781 124.691406 242.894531 124.824219 242.367188 124.957031 C 245.015625 125.617188 246.867188 128.132812 246.867188 130.914062 C 246.867188 133.824219 245.015625 136.207031 242.367188 137 C 242.894531 137.132812 243.425781 137.132812 243.957031 137.132812 C 247.398438 137.132812 250.175781 134.355469 250.175781 130.914062 Z M 250.175781 130.914062 " fill-opacity="1" fill-rule="evenodd"/><path fill="#bb2b40" d="M 223.304688 130.914062 C 223.304688 127.472656 220.527344 124.691406 217.085938 124.691406 C 216.554688 124.691406 216.027344 124.824219 215.496094 124.957031 C 218.144531 125.617188 219.996094 128.132812 219.996094 130.914062 C 219.996094 133.824219 218.144531 136.207031 215.496094 137 C 216.027344 137.132812 216.554688 137.132812 217.085938 137.132812 C 220.527344 137.132812 223.304688 134.355469 223.304688 130.914062 Z M 223.304688 130.914062 " fill-opacity="1" fill-rule="evenodd"/><path fill="#e6e7e8" d="M 82.597656 287.238281 C 82.597656 294.519531 88.554688 300.476562 95.835938 300.476562 L 279.296875 300.476562 C 286.578125 300.476562 292.402344 294.519531 292.402344 287.238281 L 292.402344 147.0625 L 82.597656 147.0625 Z M 82.597656 287.238281 " fill-opacity="1" fill-rule="evenodd"/><path fill="#c2c4c6" d="M 292.402344 147.0625 L 289.09375 147.0625 L 289.09375 287.238281 C 289.09375 294.519531 283.269531 300.476562 275.988281 300.476562 L 279.296875 300.476562 C 286.578125 300.476562 292.402344 294.519531 292.402344 287.238281 Z M 292.402344 147.0625 " fill-opacity="1" fill-rule="evenodd"/><path fill="#df2d47" d="M 128.398438 164.667969 C 128.925781 164.003906 129.851562 163.738281 130.648438 164.003906 L 158.972656 173.535156 C 159.902344 173.800781 160.5625 174.59375 160.5625 175.519531 C 160.5625 176.445312 160.035156 177.375 159.238281 177.769531 L 146.796875 183.066406 L 141.371094 195.507812 C 141.105469 196.300781 140.179688 196.832031 139.382812 196.832031 C 139.382812 196.832031 139.25 196.832031 139.25 196.832031 C 138.324219 196.832031 137.53125 196.171875 137.265625 195.375 L 127.734375 166.917969 C 127.472656 166.121094 127.734375 165.195312 128.398438 164.667969 Z M 128.398438 164.667969 " fill-opacity="1" fill-rule="evenodd"/><path fill="#00a2e3" d="M 164.003906 218.539062 C 165.460938 218.804688 170.886719 218.9375 180.417969 218.9375 L 195.90625 218.9375 C 204.507812 218.9375 210.070312 218.804688 212.320312 218.539062 L 212.714844 218.9375 C 212.320312 220.921875 212.1875 222.910156 212.1875 224.894531 L 212.054688 231.511719 L 211.789062 231.910156 L 209.273438 231.910156 L 208.878906 231.511719 C 208.746094 228.203125 208.613281 226.21875 208.480469 225.6875 C 208.214844 224.628906 207.289062 223.96875 205.964844 223.835938 C 205.566406 223.703125 203.054688 223.703125 198.816406 223.703125 L 193.789062 223.703125 C 193.65625 224.628906 193.65625 228.203125 193.65625 234.558594 L 193.65625 256.925781 C 193.65625 263.148438 193.789062 267.253906 194.183594 269.105469 C 194.316406 269.898438 194.714844 270.296875 195.507812 270.5625 C 195.90625 270.695312 197.363281 270.824219 199.875 270.957031 L 200.273438 271.355469 L 200.273438 274.003906 L 199.875 274.398438 C 197.363281 274.265625 193.523438 274.136719 188.226562 274.136719 C 182.667969 274.136719 178.828125 274.265625 176.445312 274.398438 L 176.050781 274.003906 L 176.050781 271.355469 L 176.445312 270.957031 C 179.09375 270.824219 180.550781 270.695312 180.949219 270.5625 C 181.609375 270.296875 182.140625 269.898438 182.269531 269.105469 C 182.535156 267.253906 182.667969 263.148438 182.667969 256.925781 L 182.667969 234.558594 C 182.667969 228.203125 182.667969 224.496094 182.535156 223.703125 L 177.109375 223.703125 C 172.609375 223.703125 169.960938 223.835938 169.167969 224.101562 C 168.769531 224.230469 168.503906 224.496094 168.371094 224.761719 C 168.109375 225.160156 167.84375 225.953125 167.710938 227.277344 C 167.578125 228.601562 167.445312 230.054688 167.445312 231.511719 L 167.050781 231.910156 L 164.667969 231.910156 L 164.136719 231.511719 L 164.136719 224.761719 C 164.136719 222.910156 163.871094 220.921875 163.609375 218.9375 Z M 164.003906 218.539062 " fill-opacity="1" fill-rule="evenodd"/><path fill="#3a3a3c" d="M 176.050781 194.183594 L 234.953125 194.183594 C 236.410156 194.183594 237.601562 195.375 237.601562 196.832031 C 237.601562 198.289062 236.410156 199.480469 234.953125 199.480469 L 176.050781 199.480469 C 174.59375 199.480469 173.402344 198.289062 173.402344 196.832031 C 173.402344 195.375 174.59375 194.183594 176.050781 194.183594 Z M 176.050781 194.183594 " fill-opacity="1" fill-rule="evenodd"/><path fill="#3a3a3c" d="M 192.066406 178.167969 C 192.066406 176.710938 193.257812 175.652344 194.714844 175.652344 L 234.953125 175.652344 C 236.410156 175.652344 237.601562 176.710938 237.601562 178.167969 C 237.601562 179.625 236.410156 180.816406 234.953125 180.816406 L 194.714844 180.816406 C 193.257812 180.816406 192.066406 179.625 192.066406 178.167969 Z M 192.066406 178.167969 " fill-opacity="1" fill-rule="evenodd"/><path fill="#3a3a3c" d="M 234.953125 184.917969 C 236.410156 184.917969 237.601562 186.109375 237.601562 187.566406 C 237.601562 188.890625 236.410156 190.082031 234.953125 190.082031 L 176.050781 190.082031 C 174.59375 190.082031 173.535156 188.890625 173.535156 187.566406 C 173.535156 186.109375 174.59375 184.917969 176.050781 184.917969 Z M 234.953125 184.917969 " fill-opacity="1" fill-rule="evenodd"/><path fill="#c1c1c1" d="M 166.785156 163.210938 L 247.398438 163.210938 C 248.851562 163.210938 250.042969 164.402344 250.042969 165.859375 L 250.042969 283.664062 C 250.042969 285.121094 248.851562 286.3125 247.398438 286.3125 L 129.589844 286.3125 C 128.132812 286.3125 126.941406 285.121094 126.941406 283.664062 L 126.941406 206.097656 C 126.941406 204.640625 128.132812 203.582031 129.589844 203.582031 C 130.914062 203.582031 132.105469 204.640625 132.105469 206.097656 L 132.105469 281.019531 L 244.75 281.019531 L 244.75 168.371094 L 166.785156 168.371094 C 165.328125 168.371094 164.136719 167.179688 164.136719 165.859375 C 164.136719 164.402344 165.328125 163.210938 166.785156 163.210938 Z M 166.785156 163.210938 " fill-opacity="1" fill-rule="evenodd"/><path fill="#3a3a3c" d="M 281.019531 84.980469 C 281.019531 85.492188 280.96875 86 280.867188 86.503906 C 280.769531 87.007812 280.621094 87.496094 280.421875 87.96875 C 280.226562 88.441406 279.988281 88.894531 279.703125 89.320312 C 279.417969 89.746094 279.09375 90.140625 278.730469 90.503906 C 278.367188 90.867188 277.972656 91.1875 277.546875 91.472656 C 277.121094 91.757812 276.671875 92 276.195312 92.195312 C 275.722656 92.390625 275.234375 92.539062 274.730469 92.640625 C 274.230469 92.742188 273.722656 92.789062 273.207031 92.789062 C 272.695312 92.789062 272.1875 92.742188 271.683594 92.640625 C 271.183594 92.539062 270.695312 92.390625 270.21875 92.195312 C 269.746094 92 269.296875 91.757812 268.871094 91.472656 C 268.441406 91.1875 268.050781 90.867188 267.6875 90.503906 C 267.324219 90.140625 267 89.746094 266.714844 89.320312 C 266.429688 88.894531 266.191406 88.441406 265.992188 87.96875 C 265.796875 87.496094 265.648438 87.007812 265.550781 86.503906 C 265.449219 86 265.398438 85.492188 265.398438 84.980469 C 265.398438 84.46875 265.449219 83.960938 265.550781 83.457031 C 265.648438 82.953125 265.796875 82.464844 265.992188 81.992188 C 266.191406 81.519531 266.429688 81.066406 266.714844 80.640625 C 267 80.214844 267.324219 79.820312 267.6875 79.457031 C 268.050781 79.09375 268.441406 78.773438 268.871094 78.488281 C 269.296875 78.203125 269.746094 77.960938 270.21875 77.765625 C 270.695312 77.570312 271.183594 77.421875 271.683594 77.320312 C 272.1875 77.222656 272.695312 77.171875 273.207031 77.171875 C 273.722656 77.171875 274.230469 77.222656 274.730469 77.320312 C 275.234375 77.421875 275.722656 77.570312 276.195312 77.765625 C 276.671875 77.960938 277.121094 78.203125 277.546875 78.488281 C 277.972656 78.773438 278.367188 79.09375 278.730469 79.457031 C 279.09375 79.820312 279.417969 80.214844 279.703125 80.640625 C 279.988281 81.066406 280.226562 81.519531 280.421875 81.992188 C 280.621094 82.464844 280.769531 82.953125 280.867188 83.457031 C 280.96875 83.960938 281.019531 84.46875 281.019531 84.980469 Z M 281.019531 84.980469 " fill-opacity="1" fill-rule="nonzero"/><path fill="#3a3a3c" d="M 133.03125 84.980469 C 133.03125 85.667969 132.964844 86.347656 132.828125 87.019531 C 132.695312 87.695312 132.496094 88.347656 132.234375 88.980469 C 131.972656 89.617188 131.648438 90.21875 131.269531 90.789062 C 130.886719 91.359375 130.453125 91.890625 129.96875 92.375 C 129.480469 92.859375 128.953125 93.292969 128.382812 93.675781 C 127.8125 94.058594 127.210938 94.378906 126.574219 94.640625 C 125.941406 94.90625 125.285156 95.101562 124.613281 95.238281 C 123.941406 95.371094 123.261719 95.4375 122.574219 95.4375 C 121.886719 95.4375 121.207031 95.371094 120.53125 95.238281 C 119.859375 95.101562 119.207031 94.90625 118.570312 94.640625 C 117.9375 94.378906 117.335938 94.058594 116.761719 93.675781 C 116.191406 93.292969 115.664062 92.859375 115.179688 92.375 C 114.695312 91.890625 114.261719 91.359375 113.878906 90.789062 C 113.496094 90.21875 113.175781 89.617188 112.914062 88.980469 C 112.648438 88.347656 112.449219 87.695312 112.316406 87.019531 C 112.183594 86.347656 112.117188 85.667969 112.117188 84.980469 C 112.117188 84.292969 112.183594 83.613281 112.316406 82.941406 C 112.449219 82.265625 112.648438 81.613281 112.914062 80.980469 C 113.175781 80.34375 113.496094 79.742188 113.878906 79.171875 C 114.261719 78.601562 114.695312 78.070312 115.179688 77.585938 C 115.664062 77.101562 116.191406 76.667969 116.761719 76.285156 C 117.335938 75.90625 117.9375 75.582031 118.570312 75.320312 C 119.207031 75.058594 119.859375 74.859375 120.53125 74.722656 C 121.207031 74.589844 121.886719 74.523438 122.574219 74.523438 C 123.261719 74.523438 123.941406 74.589844 124.613281 74.722656 C 125.285156 74.859375 125.941406 75.058594 126.574219 75.320312 C 127.210938 75.582031 127.8125 75.90625 128.382812 76.285156 C 128.953125 76.667969 129.480469 77.101562 129.96875 77.585938 C 130.453125 78.070312 130.886719 78.601562 131.269531 79.171875 C 131.648438 79.742188 131.972656 80.34375 132.234375 80.980469 C 132.496094 81.613281 132.695312 82.265625 132.828125 82.941406 C 132.964844 83.613281 133.03125 84.292969 133.03125 84.980469 Z M 133.03125 84.980469 " fill-opacity="1" fill-rule="nonzero"/></svg>